<svg width="153" height="32" viewBox="0 0 153 32" fill="none" xmlns="http://www.w3.org/2000/svg">
<path d="M39.106 22.264C37.9033 22.264 36.818 21.9927 35.85 21.45C34.8967 20.8927 34.134 20.1373 33.562 19.184C33.0047 18.2307 32.726 17.16 32.726 15.972C32.726 14.784 33.0047 13.7207 33.562 12.782C34.1193 11.8287 34.882 11.0807 35.85 10.538C36.818 9.99533 37.9033 9.724 39.106 9.724C40.0007 9.724 40.8293 9.878 41.592 10.186C42.3547 10.494 43.0073 10.9267 43.55 11.484C44.0927 12.0267 44.4813 12.672 44.716 13.42L41.856 14.652C41.6507 14.0507 41.2987 13.574 40.8 13.222C40.316 12.87 39.7513 12.694 39.106 12.694C38.534 12.694 38.0207 12.8333 37.566 13.112C37.126 13.3907 36.774 13.7793 36.51 14.278C36.2607 14.7767 36.136 15.3487 36.136 15.994C36.136 16.6393 36.2607 17.2113 36.51 17.71C36.774 18.2087 37.126 18.5973 37.566 18.876C38.0207 19.1547 38.534 19.294 39.106 19.294C39.766 19.294 40.338 19.118 40.822 18.766C41.306 18.414 41.6507 17.9373 41.856 17.336L44.716 18.59C44.496 19.294 44.1147 19.9247 43.572 20.482C43.0293 21.0393 42.3767 21.4793 41.614 21.802C40.8513 22.11 40.0153 22.264 39.106 22.264ZM52.6212 22.264C51.4332 22.264 50.3479 21.9927 49.3652 21.45C48.3972 20.9073 47.6199 20.1667 47.0332 19.228C46.4612 18.2747 46.1752 17.1967 46.1752 15.994C46.1752 14.7767 46.4612 13.6987 47.0332 12.76C47.6199 11.8213 48.3972 11.0807 49.3652 10.538C50.3479 9.99533 51.4332 9.724 52.6212 9.724C53.8092 9.724 54.8872 9.99533 55.8552 10.538C56.8232 11.0807 57.5932 11.8213 58.1652 12.76C58.7519 13.6987 59.0452 14.7767 59.0452 15.994C59.0452 17.1967 58.7519 18.2747 58.1652 19.228C57.5932 20.1667 56.8232 20.9073 55.8552 21.45C54.8872 21.9927 53.8092 22.264 52.6212 22.264ZM52.6212 19.294C53.2226 19.294 53.7432 19.1547 54.1832 18.876C54.6379 18.5973 54.9899 18.2087 55.2392 17.71C55.5032 17.2113 55.6352 16.6393 55.6352 15.994C55.6352 15.3487 55.5032 14.784 55.2392 14.3C54.9899 13.8013 54.6379 13.4127 54.1832 13.134C53.7432 12.8407 53.2226 12.694 52.6212 12.694C52.0199 12.694 51.4919 12.8407 51.0372 13.134C50.5826 13.4127 50.2232 13.8013 49.9592 14.3C49.7099 14.784 49.5852 15.3487 49.5852 15.994C49.5852 16.6393 49.7099 17.2113 49.9592 17.71C50.2232 18.2087 50.5826 18.5973 51.0372 18.876C51.4919 19.1547 52.0199 19.294 52.6212 19.294ZM60.9893 22V9.988H64.0693V12.914L63.7393 12.43C63.9153 11.506 64.3406 10.824 65.0153 10.384C65.69 9.944 66.4966 9.724 67.4353 9.724C68.4326 9.724 69.3053 9.98067 70.0533 10.494C70.816 10.9927 71.2926 11.6673 71.4833 12.518L70.5373 12.606C70.9333 11.6233 71.498 10.8973 72.2313 10.428C72.9646 9.95867 73.8226 9.724 74.8053 9.724C75.6706 9.724 76.4333 9.91467 77.0933 10.296C77.768 10.6773 78.296 11.2127 78.6773 11.902C79.0586 12.5767 79.2493 13.3687 79.2493 14.278V22H75.9493V14.982C75.9493 14.5127 75.8613 14.1093 75.6853 13.772C75.524 13.4347 75.2893 13.1707 74.9813 12.98C74.6733 12.7893 74.2993 12.694 73.8593 12.694C73.434 12.694 73.06 12.7893 72.7373 12.98C72.4293 13.1707 72.1873 13.4347 72.0113 13.772C71.85 14.1093 71.7693 14.5127 71.7693 14.982V22H68.4693V14.982C68.4693 14.5127 68.3813 14.1093 68.2053 13.772C68.044 13.4347 67.8093 13.1707 67.5013 12.98C67.1933 12.7893 66.8193 12.694 66.3793 12.694C65.954 12.694 65.58 12.7893 65.2573 12.98C64.9493 13.1707 64.7073 13.4347 64.5313 13.772C64.37 14.1093 64.2893 14.5127 64.2893 14.982V22H60.9893ZM81.4209 26.4V9.988H84.5009V12.276L84.2149 11.616C84.6109 11.0147 85.1463 10.5527 85.8209 10.23C86.5103 9.89267 87.2949 9.724 88.1749 9.724C89.3189 9.724 90.3529 10.0027 91.2769 10.56C92.2009 11.1173 92.9343 11.8727 93.4769 12.826C94.0196 13.7647 94.2909 14.8207 94.2909 15.994C94.2909 17.1527 94.0196 18.2087 93.4769 19.162C92.9489 20.1153 92.2229 20.8707 91.2989 21.428C90.3749 21.9853 89.3263 22.264 88.1529 22.264C87.3316 22.264 86.5689 22.1173 85.8649 21.824C85.1756 21.516 84.6183 21.0687 84.1929 20.482L84.7209 19.8V26.4H81.4209ZM87.7569 19.294C88.3729 19.294 88.9156 19.1547 89.3849 18.876C89.8543 18.5973 90.2209 18.2087 90.4849 17.71C90.7489 17.2113 90.8809 16.6393 90.8809 15.994C90.8809 15.3487 90.7489 14.784 90.4849 14.3C90.2209 13.8013 89.8543 13.4127 89.3849 13.134C88.9156 12.8407 88.3729 12.694 87.7569 12.694C87.1703 12.694 86.6423 12.8333 86.1729 13.112C85.7183 13.3907 85.3589 13.7793 85.0949 14.278C84.8456 14.7767 84.7209 15.3487 84.7209 15.994C84.7209 16.6393 84.8456 17.2113 85.0949 17.71C85.3589 18.2087 85.7183 18.5973 86.1729 18.876C86.6423 19.1547 87.1703 19.294 87.7569 19.294ZM102.186 22.264C100.998 22.264 99.9123 21.9927 98.9297 21.45C97.9617 20.9073 97.1843 20.1667 96.5977 19.228C96.0257 18.2747 95.7397 17.1967 95.7397 15.994C95.7397 14.7767 96.0257 13.6987 96.5977 12.76C97.1843 11.8213 97.9617 11.0807 98.9297 10.538C99.9123 9.99533 100.998 9.724 102.186 9.724C103.374 9.724 104.452 9.99533 105.42 10.538C106.388 11.0807 107.158 11.8213 107.73 12.76C108.316 13.6987 108.61 14.7767 108.61 15.994C108.61 17.1967 108.316 18.2747 107.73 19.228C107.158 20.1667 106.388 20.9073 105.42 21.45C104.452 21.9927 103.374 22.264 102.186 22.264ZM102.186 19.294C102.787 19.294 103.308 19.1547 103.748 18.876C104.202 18.5973 104.554 18.2087 104.804 17.71C105.068 17.2113 105.2 16.6393 105.2 15.994C105.2 15.3487 105.068 14.784 104.804 14.3C104.554 13.8013 104.202 13.4127 103.748 13.134C103.308 12.8407 102.787 12.694 102.186 12.694C101.584 12.694 101.056 12.8407 100.602 13.134C100.147 13.4127 99.7877 13.8013 99.5237 14.3C99.2743 14.784 99.1497 15.3487 99.1497 15.994C99.1497 16.6393 99.2743 17.2113 99.5237 17.71C99.7877 18.2087 100.147 18.5973 100.602 18.876C101.056 19.1547 101.584 19.294 102.186 19.294ZM115.262 22.264C113.942 22.264 112.79 21.956 111.808 21.34C110.84 20.7093 110.18 19.866 109.828 18.81L112.248 17.666C112.556 18.3113 112.974 18.8173 113.502 19.184C114.03 19.5507 114.616 19.734 115.262 19.734C115.731 19.734 116.09 19.6387 116.34 19.448C116.589 19.2573 116.714 18.9933 116.714 18.656C116.714 18.48 116.67 18.3333 116.582 18.216C116.494 18.084 116.362 17.9667 116.186 17.864C116.01 17.7613 115.79 17.6733 115.526 17.6L113.48 17.028C112.497 16.7493 111.742 16.302 111.214 15.686C110.686 15.0553 110.422 14.3147 110.422 13.464C110.422 12.716 110.612 12.0633 110.994 11.506C111.375 10.9487 111.91 10.516 112.6 10.208C113.289 9.88533 114.081 9.724 114.976 9.724C116.149 9.724 117.176 10.0027 118.056 10.56C118.95 11.1027 119.581 11.8727 119.948 12.87L117.506 14.014C117.33 13.5153 117.007 13.1193 116.538 12.826C116.083 12.518 115.562 12.364 114.976 12.364C114.55 12.364 114.213 12.452 113.964 12.628C113.729 12.804 113.612 13.046 113.612 13.354C113.612 13.5153 113.656 13.662 113.744 13.794C113.832 13.926 113.971 14.0433 114.162 14.146C114.367 14.2487 114.616 14.344 114.91 14.432L116.824 15.004C117.821 15.2973 118.584 15.7447 119.112 16.346C119.64 16.9327 119.904 17.6587 119.904 18.524C119.904 19.272 119.706 19.9247 119.31 20.482C118.928 21.0393 118.393 21.4793 117.704 21.802C117.014 22.11 116.2 22.264 115.262 22.264ZM121.876 22V9.988H125.176V22H121.876ZM121.876 8.91V5.61H125.176V8.91H121.876ZM129.043 22V12.848H127.019V9.988H129.043V9.812C129.043 8.85867 129.226 8.052 129.593 7.392C129.974 6.732 130.517 6.226 131.221 5.874C131.925 5.522 132.776 5.346 133.773 5.346C133.964 5.346 134.169 5.36067 134.389 5.39C134.609 5.40467 134.792 5.42667 134.939 5.456V8.272C134.792 8.24267 134.66 8.228 134.543 8.228C134.44 8.21333 134.33 8.206 134.213 8.206C133.597 8.206 133.128 8.34533 132.805 8.624C132.497 8.888 132.343 9.284 132.343 9.812V9.988H134.917V12.848H132.343V22H129.043ZM138.484 26.84C138.132 26.84 137.788 26.8107 137.45 26.752C137.128 26.6933 136.842 26.598 136.592 26.466V23.76C136.798 23.8187 137.04 23.87 137.318 23.914C137.597 23.958 137.854 23.98 138.088 23.98C138.734 23.98 139.196 23.826 139.474 23.518C139.753 23.2247 139.98 22.8873 140.156 22.506L140.97 20.636L140.926 23.386L135.646 9.988H139.188L142.686 19.514H141.366L144.864 9.988H148.406L143.258 23.122C142.936 23.9433 142.54 24.6327 142.07 25.19C141.601 25.7473 141.066 26.158 140.464 26.422C139.878 26.7007 139.218 26.84 138.484 26.84Z" fill="#F5F5F5"/>
<path d="M23.7922 8.94516C23.1382 8.56192 19.2432 6.32447 18.2102 5.72249C17.558 5.34249 16.7997 5.125 15.9902 5.125C15.1675 5.125 14.3975 5.34974 13.7377 5.74174C12.7205 6.34572 8.8615 8.55892 8.2125 8.93341C6.89 9.69664 6 11.1254 6 12.7613C6 14.03 6 17.9272 6 19.1959C6 20.8139 6.86975 22.2289 8.1675 22.9981C8.8265 23.3888 12.7365 25.6315 13.7692 26.2333C14.4215 26.6135 15.1805 26.8312 15.99 26.8312C16.8005 26.8312 17.5602 26.613 18.2132 26.2318C19.2447 25.63 23.1105 23.4013 23.757 23.0308C25.085 22.2691 25.98 20.8371 25.98 19.1959C25.98 17.9267 25.98 14.0278 25.98 12.7586C25.98 11.1326 25.1012 9.71139 23.7922 8.94516ZM21.0392 17.6017C21.0392 18.4307 20.5872 19.1542 19.9162 19.5392C19.5895 19.7262 17.6367 20.8521 17.1157 21.1566C16.7857 21.3491 16.4022 21.4591 15.9925 21.4591C15.5832 21.4591 15.2 21.3494 14.8705 21.1574C14.3487 20.8529 12.3732 19.7202 12.0402 19.5227C11.3847 19.1339 10.9452 18.4194 10.9452 17.6017C10.9452 16.961 10.9452 14.992 10.9452 14.3508C10.9452 13.5238 11.395 12.8023 12.063 12.4168C12.391 12.2276 14.3405 11.1096 14.8545 10.8044C15.1877 10.6064 15.577 10.4929 15.9927 10.4929C16.4015 10.4929 16.7845 10.6026 17.114 10.7946C17.6357 11.0989 19.6037 12.2288 19.9342 12.4228C20.5955 12.8101 21.0395 13.5281 21.0395 14.3495C21.0392 14.9908 21.0392 16.9605 21.0392 17.6017Z" fill="#3B82F6"/>
</svg>
