<svg width="145" height="32" viewBox="0 0 145 32" fill="none" xmlns="http://www.w3.org/2000/svg">
<path d="M35.106 22.264C33.9033 22.264 32.818 21.9927 31.85 21.45C30.8967 20.8927 30.134 20.1373 29.562 19.184C29.0047 18.2307 28.726 17.16 28.726 15.972C28.726 14.784 29.0047 13.7207 29.562 12.782C30.1193 11.8287 30.882 11.0807 31.85 10.538C32.818 9.99533 33.9033 9.724 35.106 9.724C36.0007 9.724 36.8293 9.878 37.592 10.186C38.3547 10.494 39.0073 10.9267 39.55 11.484C40.0927 12.0267 40.4813 12.672 40.716 13.42L37.856 14.652C37.6507 14.0507 37.2987 13.574 36.8 13.222C36.316 12.87 35.7513 12.694 35.106 12.694C34.534 12.694 34.0207 12.8333 33.566 13.112C33.126 13.3907 32.774 13.7793 32.51 14.278C32.2607 14.7767 32.136 15.3487 32.136 15.994C32.136 16.6393 32.2607 17.2113 32.51 17.71C32.774 18.2087 33.126 18.5973 33.566 18.876C34.0207 19.1547 34.534 19.294 35.106 19.294C35.766 19.294 36.338 19.118 36.822 18.766C37.306 18.414 37.6507 17.9373 37.856 17.336L40.716 18.59C40.496 19.294 40.1147 19.9247 39.572 20.482C39.0293 21.0393 38.3767 21.4793 37.614 21.802C36.8513 22.11 36.0153 22.264 35.106 22.264ZM48.6212 22.264C47.4332 22.264 46.3479 21.9927 45.3652 21.45C44.3972 20.9073 43.6199 20.1667 43.0332 19.228C42.4612 18.2747 42.1752 17.1967 42.1752 15.994C42.1752 14.7767 42.4612 13.6987 43.0332 12.76C43.6199 11.8213 44.3972 11.0807 45.3652 10.538C46.3479 9.99533 47.4332 9.724 48.6212 9.724C49.8092 9.724 50.8872 9.99533 51.8552 10.538C52.8232 11.0807 53.5932 11.8213 54.1652 12.76C54.7519 13.6987 55.0452 14.7767 55.0452 15.994C55.0452 17.1967 54.7519 18.2747 54.1652 19.228C53.5932 20.1667 52.8232 20.9073 51.8552 21.45C50.8872 21.9927 49.8092 22.264 48.6212 22.264ZM48.6212 19.294C49.2226 19.294 49.7432 19.1547 50.1832 18.876C50.6379 18.5973 50.9899 18.2087 51.2392 17.71C51.5032 17.2113 51.6352 16.6393 51.6352 15.994C51.6352 15.3487 51.5032 14.784 51.2392 14.3C50.9899 13.8013 50.6379 13.4127 50.1832 13.134C49.7432 12.8407 49.2226 12.694 48.6212 12.694C48.0199 12.694 47.4919 12.8407 47.0372 13.134C46.5826 13.4127 46.2232 13.8013 45.9592 14.3C45.7099 14.784 45.5852 15.3487 45.5852 15.994C45.5852 16.6393 45.7099 17.2113 45.9592 17.71C46.2232 18.2087 46.5826 18.5973 47.0372 18.876C47.4919 19.1547 48.0199 19.294 48.6212 19.294ZM56.9893 22V9.988H60.0693V12.914L59.7393 12.43C59.9153 11.506 60.3406 10.824 61.0153 10.384C61.69 9.944 62.4966 9.724 63.4353 9.724C64.4326 9.724 65.3053 9.98067 66.0533 10.494C66.816 10.9927 67.2926 11.6673 67.4833 12.518L66.5373 12.606C66.9333 11.6233 67.498 10.8973 68.2313 10.428C68.9646 9.95867 69.8226 9.724 70.8053 9.724C71.6706 9.724 72.4333 9.91467 73.0933 10.296C73.768 10.6773 74.296 11.2127 74.6773 11.902C75.0586 12.5767 75.2493 13.3687 75.2493 14.278V22H71.9493V14.982C71.9493 14.5127 71.8613 14.1093 71.6853 13.772C71.524 13.4347 71.2893 13.1707 70.9813 12.98C70.6733 12.7893 70.2993 12.694 69.8593 12.694C69.434 12.694 69.06 12.7893 68.7373 12.98C68.4293 13.1707 68.1873 13.4347 68.0113 13.772C67.85 14.1093 67.7693 14.5127 67.7693 14.982V22H64.4693V14.982C64.4693 14.5127 64.3813 14.1093 64.2053 13.772C64.044 13.4347 63.8093 13.1707 63.5013 12.98C63.1933 12.7893 62.8193 12.694 62.3793 12.694C61.954 12.694 61.58 12.7893 61.2573 12.98C60.9493 13.1707 60.7073 13.4347 60.5313 13.772C60.37 14.1093 60.2893 14.5127 60.2893 14.982V22H56.9893ZM77.4209 26.4V9.988H80.5009V12.276L80.2149 11.616C80.6109 11.0147 81.1463 10.5527 81.8209 10.23C82.5103 9.89267 83.2949 9.724 84.1749 9.724C85.3189 9.724 86.3529 10.0027 87.2769 10.56C88.2009 11.1173 88.9343 11.8727 89.4769 12.826C90.0196 13.7647 90.2909 14.8207 90.2909 15.994C90.2909 17.1527 90.0196 18.2087 89.4769 19.162C88.9489 20.1153 88.2229 20.8707 87.2989 21.428C86.3749 21.9853 85.3263 22.264 84.1529 22.264C83.3316 22.264 82.5689 22.1173 81.8649 21.824C81.1756 21.516 80.6183 21.0687 80.1929 20.482L80.7209 19.8V26.4H77.4209ZM83.7569 19.294C84.3729 19.294 84.9156 19.1547 85.3849 18.876C85.8543 18.5973 86.2209 18.2087 86.4849 17.71C86.7489 17.2113 86.8809 16.6393 86.8809 15.994C86.8809 15.3487 86.7489 14.784 86.4849 14.3C86.2209 13.8013 85.8543 13.4127 85.3849 13.134C84.9156 12.8407 84.3729 12.694 83.7569 12.694C83.1703 12.694 82.6423 12.8333 82.1729 13.112C81.7183 13.3907 81.3589 13.7793 81.0949 14.278C80.8456 14.7767 80.7209 15.3487 80.7209 15.994C80.7209 16.6393 80.8456 17.2113 81.0949 17.71C81.3589 18.2087 81.7183 18.5973 82.1729 18.876C82.6423 19.1547 83.1703 19.294 83.7569 19.294ZM98.1857 22.264C96.9977 22.264 95.9123 21.9927 94.9297 21.45C93.9617 20.9073 93.1843 20.1667 92.5977 19.228C92.0257 18.2747 91.7397 17.1967 91.7397 15.994C91.7397 14.7767 92.0257 13.6987 92.5977 12.76C93.1843 11.8213 93.9617 11.0807 94.9297 10.538C95.9123 9.99533 96.9977 9.724 98.1857 9.724C99.3737 9.724 100.452 9.99533 101.42 10.538C102.388 11.0807 103.158 11.8213 103.73 12.76C104.316 13.6987 104.61 14.7767 104.61 15.994C104.61 17.1967 104.316 18.2747 103.73 19.228C103.158 20.1667 102.388 20.9073 101.42 21.45C100.452 21.9927 99.3737 22.264 98.1857 22.264ZM98.1857 19.294C98.787 19.294 99.3077 19.1547 99.7477 18.876C100.202 18.5973 100.554 18.2087 100.804 17.71C101.068 17.2113 101.2 16.6393 101.2 15.994C101.2 15.3487 101.068 14.784 100.804 14.3C100.554 13.8013 100.202 13.4127 99.7477 13.134C99.3077 12.8407 98.787 12.694 98.1857 12.694C97.5843 12.694 97.0563 12.8407 96.6017 13.134C96.147 13.4127 95.7877 13.8013 95.5237 14.3C95.2743 14.784 95.1497 15.3487 95.1497 15.994C95.1497 16.6393 95.2743 17.2113 95.5237 17.71C95.7877 18.2087 96.147 18.5973 96.6017 18.876C97.0563 19.1547 97.5843 19.294 98.1857 19.294ZM111.262 22.264C109.942 22.264 108.79 21.956 107.808 21.34C106.84 20.7093 106.18 19.866 105.828 18.81L108.248 17.666C108.556 18.3113 108.974 18.8173 109.502 19.184C110.03 19.5507 110.616 19.734 111.262 19.734C111.731 19.734 112.09 19.6387 112.34 19.448C112.589 19.2573 112.714 18.9933 112.714 18.656C112.714 18.48 112.67 18.3333 112.582 18.216C112.494 18.084 112.362 17.9667 112.186 17.864C112.01 17.7613 111.79 17.6733 111.526 17.6L109.48 17.028C108.497 16.7493 107.742 16.302 107.214 15.686C106.686 15.0553 106.422 14.3147 106.422 13.464C106.422 12.716 106.612 12.0633 106.994 11.506C107.375 10.9487 107.91 10.516 108.6 10.208C109.289 9.88533 110.081 9.724 110.976 9.724C112.149 9.724 113.176 10.0027 114.056 10.56C114.95 11.1027 115.581 11.8727 115.948 12.87L113.506 14.014C113.33 13.5153 113.007 13.1193 112.538 12.826C112.083 12.518 111.562 12.364 110.976 12.364C110.55 12.364 110.213 12.452 109.964 12.628C109.729 12.804 109.612 13.046 109.612 13.354C109.612 13.5153 109.656 13.662 109.744 13.794C109.832 13.926 109.971 14.0433 110.162 14.146C110.367 14.2487 110.616 14.344 110.91 14.432L112.824 15.004C113.821 15.2973 114.584 15.7447 115.112 16.346C115.64 16.9327 115.904 17.6587 115.904 18.524C115.904 19.272 115.706 19.9247 115.31 20.482C114.928 21.0393 114.393 21.4793 113.704 21.802C113.014 22.11 112.2 22.264 111.262 22.264ZM117.876 22V9.988H121.176V22H117.876ZM117.876 8.91V5.61H121.176V8.91H117.876ZM125.043 22V12.848H123.019V9.988H125.043V9.812C125.043 8.85867 125.226 8.052 125.593 7.392C125.974 6.732 126.517 6.226 127.221 5.874C127.925 5.522 128.776 5.346 129.773 5.346C129.964 5.346 130.169 5.36067 130.389 5.39C130.609 5.40467 130.792 5.42667 130.939 5.456V8.272C130.792 8.24267 130.66 8.228 130.543 8.228C130.44 8.21333 130.33 8.206 130.213 8.206C129.597 8.206 129.128 8.34533 128.805 8.624C128.497 8.888 128.343 9.284 128.343 9.812V9.988H130.917V12.848H128.343V22H125.043ZM134.484 26.84C134.132 26.84 133.788 26.8107 133.45 26.752C133.128 26.6933 132.842 26.598 132.592 26.466V23.76C132.798 23.8187 133.04 23.87 133.318 23.914C133.597 23.958 133.854 23.98 134.088 23.98C134.734 23.98 135.196 23.826 135.474 23.518C135.753 23.2247 135.98 22.8873 136.156 22.506L136.97 20.636L136.926 23.386L131.646 9.988H135.188L138.686 19.514H137.366L140.864 9.988H144.406L139.258 23.122C138.936 23.9433 138.54 24.6327 138.07 25.19C137.601 25.7473 137.066 26.158 136.464 26.422C135.878 26.7007 135.218 26.84 134.484 26.84Z" fill="#1E1E1E"/>
<path d="M20.5911 8.22385C19.8709 7.80011 15.5822 5.32622 14.4447 4.66062C13.7265 4.24048 12.8916 4 12.0003 4C11.0943 4 10.2465 4.24849 9.52004 4.68191C8.39995 5.34972 4.1508 7.79679 3.43619 8.21086C1.97998 9.05474 1 10.6344 1 12.4433C1 13.8461 1 18.155 1 19.5578C1 21.3468 1.95768 22.9113 3.38664 23.7618C4.11226 24.1938 8.41757 26.6735 9.55473 27.3388C10.2729 27.7592 11.1087 28 12 28C12.8924 28 13.729 27.7587 14.448 27.3372C15.5838 26.6718 19.8404 24.2076 20.5523 23.798C22.0145 22.9558 23 21.3725 23 19.5578C23 18.1545 23 13.8436 23 12.4402C23 10.6424 22.0324 9.07105 20.5911 8.22385ZM17.5597 17.7952C17.5597 18.7117 17.062 19.5117 16.3232 19.9373C15.9634 20.1441 13.8132 21.3891 13.2396 21.7257C12.8762 21.9386 12.4539 22.0602 12.0028 22.0602C11.5521 22.0602 11.1301 21.9388 10.7673 21.7266C10.1928 21.3899 8.01759 20.1375 7.65093 19.9191C6.92915 19.4893 6.44522 18.6993 6.44522 17.7952C6.44522 17.0867 6.44522 14.9097 6.44522 14.2007C6.44522 13.2863 6.94044 12.4886 7.67597 12.0624C8.03714 11.8531 10.1837 10.617 10.7497 10.2795C11.1166 10.0606 11.5452 9.93511 12.003 9.93511C12.4531 9.93511 12.8748 10.0565 13.2376 10.2687C13.8121 10.6051 15.9791 11.8545 16.343 12.069C17.0711 12.4972 17.56 13.291 17.56 14.1993C17.5597 14.9083 17.5597 17.0862 17.5597 17.7952Z" fill="#3B82F6"/>
</svg>
