<svg xmlns="http://www.w3.org/2000/svg" version="1.1" xmlns:xlink="http://www.w3.org/1999/xlink" width="256" height="256"><svg width="256" height="256" viewBox="0 0 256 256" fill="none" xmlns="http://www.w3.org/2000/svg">
<path d="M217.035 47.6464C209.572 43.2678 165.124 17.7043 153.336 10.8264C145.893 6.48494 137.24 4 128.003 4C118.614 4 109.827 6.56777 102.299 11.0464C90.6904 17.9471 46.6537 43.2335 39.2477 47.5122C24.1562 56.2323 14 72.5558 14 91.2471C14 105.743 14 150.269 14 164.764C14 183.25 23.9251 199.416 38.7342 208.205C46.2543 212.669 90.873 238.293 102.658 245.168C110.101 249.512 118.762 252 128 252C137.249 252 145.919 249.506 153.37 245.151C165.141 238.276 209.255 212.812 216.632 208.579C231.787 199.876 242 183.516 242 164.764C242 150.263 242 105.717 242 91.2157C242 72.6386 231.972 56.4008 217.035 47.6464ZM185.619 146.55C185.619 156.021 180.461 164.287 172.804 168.686C169.075 170.822 146.792 183.687 140.846 187.166C137.081 189.365 132.704 190.622 128.029 190.622C123.358 190.622 118.985 189.368 115.225 187.174C109.271 183.696 86.7278 170.754 82.9278 168.497C75.4476 164.056 70.4323 155.893 70.4323 146.55C70.4323 139.229 70.4323 116.734 70.4323 109.407C70.4323 99.9587 75.5646 91.7156 83.1874 87.3112C86.9303 85.149 109.177 72.3759 115.042 68.8884C118.845 66.6262 123.287 65.3295 128.031 65.3295C132.696 65.3295 137.066 66.5834 140.826 68.777C146.78 72.2531 169.238 85.1633 173.009 87.3798C180.555 91.8041 185.622 100.007 185.622 109.393C185.619 116.719 185.619 139.224 185.619 146.55Z" fill="#3B82F6"></path>
</svg><style>@media (prefers-color-scheme: light) { :root { filter: none; } }
@media (prefers-color-scheme: dark) { :root { filter: none; } }
</style></svg>